<mxfile host="app.diagrams.net" modified="2023-05-20T22:42:40.354Z" agent="Mozilla/5.0 (Windows NT 10.0; Win64; x64) AppleWebKit/537.36 (KHTML, like Gecko) Chrome/112.0.0.0 Safari/537.36 OPR/98.0.0.0" etag="RTCN_W49_awVAMRIvd1e" version="21.3.2" type="device">
  <diagram name="Page-1" id="Hy-Vvec_PGVitiET4GF5">
    <mxGraphModel dx="1180" dy="716" grid="1" gridSize="10" guides="1" tooltips="1" connect="1" arrows="1" fold="1" page="1" pageScale="1" pageWidth="1169" pageHeight="827" math="0" shadow="0">
      <root>
        <mxCell id="0" />
        <mxCell id="1" parent="0" />
        <mxCell id="lEG4agnFNa20jmzrnDoV-3" value="" style="rounded=0;whiteSpace=wrap;html=1;" vertex="1" parent="1">
          <mxGeometry x="370" y="10" width="240" height="910" as="geometry" />
        </mxCell>
        <mxCell id="lEG4agnFNa20jmzrnDoV-5" style="edgeStyle=orthogonalEdgeStyle;rounded=0;orthogonalLoop=1;jettySize=auto;html=1;exitX=0.5;exitY=0.5;exitDx=0;exitDy=0;exitPerimeter=0;entryX=0;entryY=0.5;entryDx=0;entryDy=0;" edge="1" parent="1" source="lEG4agnFNa20jmzrnDoV-1" target="lEG4agnFNa20jmzrnDoV-4">
          <mxGeometry relative="1" as="geometry" />
        </mxCell>
        <mxCell id="lEG4agnFNa20jmzrnDoV-18" style="edgeStyle=orthogonalEdgeStyle;rounded=0;orthogonalLoop=1;jettySize=auto;html=1;exitX=0.5;exitY=0.5;exitDx=0;exitDy=0;exitPerimeter=0;entryX=0;entryY=0.5;entryDx=0;entryDy=0;" edge="1" parent="1" source="lEG4agnFNa20jmzrnDoV-1" target="lEG4agnFNa20jmzrnDoV-6">
          <mxGeometry relative="1" as="geometry" />
        </mxCell>
        <mxCell id="lEG4agnFNa20jmzrnDoV-19" style="edgeStyle=orthogonalEdgeStyle;rounded=0;orthogonalLoop=1;jettySize=auto;html=1;exitX=0.5;exitY=0.5;exitDx=0;exitDy=0;exitPerimeter=0;entryX=0;entryY=0.5;entryDx=0;entryDy=0;" edge="1" parent="1" source="lEG4agnFNa20jmzrnDoV-1" target="lEG4agnFNa20jmzrnDoV-7">
          <mxGeometry relative="1" as="geometry" />
        </mxCell>
        <mxCell id="lEG4agnFNa20jmzrnDoV-20" style="edgeStyle=orthogonalEdgeStyle;rounded=0;orthogonalLoop=1;jettySize=auto;html=1;exitX=0.5;exitY=0.5;exitDx=0;exitDy=0;exitPerimeter=0;entryX=0;entryY=0.5;entryDx=0;entryDy=0;" edge="1" parent="1" source="lEG4agnFNa20jmzrnDoV-1" target="lEG4agnFNa20jmzrnDoV-8">
          <mxGeometry relative="1" as="geometry" />
        </mxCell>
        <mxCell id="lEG4agnFNa20jmzrnDoV-21" style="edgeStyle=orthogonalEdgeStyle;rounded=0;orthogonalLoop=1;jettySize=auto;html=1;exitX=0.5;exitY=0.5;exitDx=0;exitDy=0;exitPerimeter=0;entryX=0;entryY=0.5;entryDx=0;entryDy=0;" edge="1" parent="1" source="lEG4agnFNa20jmzrnDoV-1" target="lEG4agnFNa20jmzrnDoV-9">
          <mxGeometry relative="1" as="geometry" />
        </mxCell>
        <mxCell id="lEG4agnFNa20jmzrnDoV-22" style="edgeStyle=orthogonalEdgeStyle;rounded=0;orthogonalLoop=1;jettySize=auto;html=1;exitX=0.5;exitY=0.5;exitDx=0;exitDy=0;exitPerimeter=0;entryX=0;entryY=0.5;entryDx=0;entryDy=0;" edge="1" parent="1" source="lEG4agnFNa20jmzrnDoV-1" target="lEG4agnFNa20jmzrnDoV-10">
          <mxGeometry relative="1" as="geometry" />
        </mxCell>
        <mxCell id="lEG4agnFNa20jmzrnDoV-23" style="edgeStyle=orthogonalEdgeStyle;rounded=0;orthogonalLoop=1;jettySize=auto;html=1;exitX=0.5;exitY=0.5;exitDx=0;exitDy=0;exitPerimeter=0;entryX=0;entryY=0.5;entryDx=0;entryDy=0;" edge="1" parent="1" source="lEG4agnFNa20jmzrnDoV-1" target="lEG4agnFNa20jmzrnDoV-11">
          <mxGeometry relative="1" as="geometry" />
        </mxCell>
        <mxCell id="lEG4agnFNa20jmzrnDoV-24" style="edgeStyle=orthogonalEdgeStyle;rounded=0;orthogonalLoop=1;jettySize=auto;html=1;exitX=0.5;exitY=0.5;exitDx=0;exitDy=0;exitPerimeter=0;entryX=0;entryY=0.5;entryDx=0;entryDy=0;" edge="1" parent="1" source="lEG4agnFNa20jmzrnDoV-1" target="lEG4agnFNa20jmzrnDoV-13">
          <mxGeometry relative="1" as="geometry" />
        </mxCell>
        <mxCell id="lEG4agnFNa20jmzrnDoV-25" style="edgeStyle=orthogonalEdgeStyle;rounded=0;orthogonalLoop=1;jettySize=auto;html=1;exitX=0.5;exitY=0.5;exitDx=0;exitDy=0;exitPerimeter=0;entryX=0;entryY=0.5;entryDx=0;entryDy=0;" edge="1" parent="1" source="lEG4agnFNa20jmzrnDoV-1" target="lEG4agnFNa20jmzrnDoV-14">
          <mxGeometry relative="1" as="geometry" />
        </mxCell>
        <mxCell id="lEG4agnFNa20jmzrnDoV-26" style="edgeStyle=orthogonalEdgeStyle;rounded=0;orthogonalLoop=1;jettySize=auto;html=1;exitX=0.5;exitY=0.5;exitDx=0;exitDy=0;exitPerimeter=0;entryX=0;entryY=0.5;entryDx=0;entryDy=0;" edge="1" parent="1" source="lEG4agnFNa20jmzrnDoV-1" target="lEG4agnFNa20jmzrnDoV-15">
          <mxGeometry relative="1" as="geometry" />
        </mxCell>
        <mxCell id="lEG4agnFNa20jmzrnDoV-1" value="Funcionário" style="shape=umlActor;verticalLabelPosition=bottom;verticalAlign=top;html=1;outlineConnect=0;" vertex="1" parent="1">
          <mxGeometry x="200" y="100" width="30" height="60" as="geometry" />
        </mxCell>
        <mxCell id="lEG4agnFNa20jmzrnDoV-4" value="Inscreve membro" style="ellipse;whiteSpace=wrap;html=1;" vertex="1" parent="1">
          <mxGeometry x="430" y="20" width="120" height="80" as="geometry" />
        </mxCell>
        <mxCell id="lEG4agnFNa20jmzrnDoV-6" value="Pagamento da quota" style="ellipse;whiteSpace=wrap;html=1;" vertex="1" parent="1">
          <mxGeometry x="430" y="110" width="120" height="80" as="geometry" />
        </mxCell>
        <mxCell id="lEG4agnFNa20jmzrnDoV-7" value="Regista novo jogo" style="ellipse;whiteSpace=wrap;html=1;" vertex="1" parent="1">
          <mxGeometry x="430" y="200" width="120" height="80" as="geometry" />
        </mxCell>
        <mxCell id="lEG4agnFNa20jmzrnDoV-8" value="Consulta jogos" style="ellipse;whiteSpace=wrap;html=1;" vertex="1" parent="1">
          <mxGeometry x="430" y="290" width="120" height="80" as="geometry" />
        </mxCell>
        <mxCell id="lEG4agnFNa20jmzrnDoV-9" value="Consulta alugueres" style="ellipse;whiteSpace=wrap;html=1;" vertex="1" parent="1">
          <mxGeometry x="430" y="380" width="120" height="80" as="geometry" />
        </mxCell>
        <mxCell id="lEG4agnFNa20jmzrnDoV-10" value="Abre mesa" style="ellipse;whiteSpace=wrap;html=1;" vertex="1" parent="1">
          <mxGeometry x="430" y="470" width="120" height="80" as="geometry" />
        </mxCell>
        <mxCell id="lEG4agnFNa20jmzrnDoV-11" value="Regista aluguer do jogo" style="ellipse;whiteSpace=wrap;html=1;" vertex="1" parent="1">
          <mxGeometry x="430" y="560" width="120" height="80" as="geometry" />
        </mxCell>
        <mxCell id="lEG4agnFNa20jmzrnDoV-12" value="Regista fim do aluguer do jogo" style="ellipse;whiteSpace=wrap;html=1;" vertex="1" parent="1">
          <mxGeometry x="430" y="650" width="120" height="80" as="geometry" />
        </mxCell>
        <mxCell id="lEG4agnFNa20jmzrnDoV-13" value="Regista fim do aluguer do jogo" style="ellipse;whiteSpace=wrap;html=1;" vertex="1" parent="1">
          <mxGeometry x="430" y="650" width="120" height="80" as="geometry" />
        </mxCell>
        <mxCell id="lEG4agnFNa20jmzrnDoV-14" value="Fecha mesa" style="ellipse;whiteSpace=wrap;html=1;" vertex="1" parent="1">
          <mxGeometry x="430" y="740" width="120" height="80" as="geometry" />
        </mxCell>
        <mxCell id="lEG4agnFNa20jmzrnDoV-15" value="Define preços dos serviços" style="ellipse;whiteSpace=wrap;html=1;" vertex="1" parent="1">
          <mxGeometry x="430" y="830" width="120" height="80" as="geometry" />
        </mxCell>
        <mxCell id="lEG4agnFNa20jmzrnDoV-27" value="Sistema" style="text;html=1;strokeColor=none;fillColor=none;align=center;verticalAlign=middle;whiteSpace=wrap;rounded=0;" vertex="1" parent="1">
          <mxGeometry x="370" y="10" width="60" height="30" as="geometry" />
        </mxCell>
        <mxCell id="lEG4agnFNa20jmzrnDoV-31" style="edgeStyle=orthogonalEdgeStyle;rounded=0;orthogonalLoop=1;jettySize=auto;html=1;exitX=0.5;exitY=0.5;exitDx=0;exitDy=0;exitPerimeter=0;entryX=0;entryY=0;entryDx=0;entryDy=0;" edge="1" parent="1" source="lEG4agnFNa20jmzrnDoV-29" target="lEG4agnFNa20jmzrnDoV-10">
          <mxGeometry relative="1" as="geometry">
            <Array as="points">
              <mxPoint x="270" y="310" />
              <mxPoint x="270" y="482" />
            </Array>
          </mxGeometry>
        </mxCell>
        <mxCell id="lEG4agnFNa20jmzrnDoV-32" style="edgeStyle=orthogonalEdgeStyle;rounded=0;orthogonalLoop=1;jettySize=auto;html=1;exitX=0.5;exitY=0.5;exitDx=0;exitDy=0;exitPerimeter=0;entryX=0;entryY=0;entryDx=0;entryDy=0;" edge="1" parent="1" source="lEG4agnFNa20jmzrnDoV-29" target="lEG4agnFNa20jmzrnDoV-11">
          <mxGeometry relative="1" as="geometry">
            <Array as="points">
              <mxPoint x="270" y="310" />
              <mxPoint x="270" y="572" />
            </Array>
          </mxGeometry>
        </mxCell>
        <mxCell id="lEG4agnFNa20jmzrnDoV-33" style="edgeStyle=orthogonalEdgeStyle;rounded=0;orthogonalLoop=1;jettySize=auto;html=1;exitX=0.5;exitY=0.5;exitDx=0;exitDy=0;exitPerimeter=0;entryX=0;entryY=0;entryDx=0;entryDy=0;" edge="1" parent="1" source="lEG4agnFNa20jmzrnDoV-29" target="lEG4agnFNa20jmzrnDoV-13">
          <mxGeometry relative="1" as="geometry">
            <Array as="points">
              <mxPoint x="270" y="310" />
              <mxPoint x="270" y="662" />
            </Array>
          </mxGeometry>
        </mxCell>
        <mxCell id="lEG4agnFNa20jmzrnDoV-34" style="edgeStyle=orthogonalEdgeStyle;rounded=0;orthogonalLoop=1;jettySize=auto;html=1;exitX=0.5;exitY=0.5;exitDx=0;exitDy=0;exitPerimeter=0;entryX=0;entryY=0;entryDx=0;entryDy=0;" edge="1" parent="1" source="lEG4agnFNa20jmzrnDoV-29" target="lEG4agnFNa20jmzrnDoV-14">
          <mxGeometry relative="1" as="geometry">
            <Array as="points">
              <mxPoint x="270" y="310" />
              <mxPoint x="270" y="752" />
            </Array>
          </mxGeometry>
        </mxCell>
        <mxCell id="lEG4agnFNa20jmzrnDoV-29" value="Cliente" style="shape=umlActor;verticalLabelPosition=bottom;verticalAlign=top;html=1;outlineConnect=0;" vertex="1" parent="1">
          <mxGeometry x="200" y="280" width="30" height="60" as="geometry" />
        </mxCell>
      </root>
    </mxGraphModel>
  </diagram>
</mxfile>
